<svg xmlns="http://www.w3.org/2000/svg" viewBox="0 0 500 500"><g id="freepik--background-simple--inject-16"><path d="M202.22,15c-34,5.45-66.68,17.42-94.14,38.58-40.18,31-62.47,77.28-64.79,127.63-1.54,33.24,6.4,65.65,16,97.21,12.33,40.6,20.29,86.85,46,121.55,40.09,54,117.59,76.78,182.4,67.11,41.87-6.24,86.11-30,99-73,4.77-15.91,7.1-33,15.25-47.71,9.76-17.62,27.48-27.91,40.93-42.26,16.61-17.72,23.31-39.8,27.45-63.16,9.59-54.16-4.58-113.7-37.65-157.66-36.12-48-94.75-65.55-152.07-70.56C254.89,10.43,228.18,10.79,202.22,15Z" style="fill:#378CE7"></path><path d="M202.22,15c-34,5.45-66.68,17.42-94.14,38.58-40.18,31-62.47,77.28-64.79,127.63-1.54,33.24,6.4,65.65,16,97.21,12.33,40.6,20.29,86.85,46,121.55,40.09,54,117.59,76.78,182.4,67.11,41.87-6.24,86.11-30,99-73,4.77-15.91,7.1-33,15.25-47.71,9.76-17.62,27.48-27.91,40.93-42.26,16.61-17.72,23.31-39.8,27.45-63.16,9.59-54.16-4.58-113.7-37.65-157.66-36.12-48-94.75-65.55-152.07-70.56C254.89,10.43,228.18,10.79,202.22,15Z" style="fill:#fff;opacity:0.7000000000000001"></path></g><g id="freepik--character-4--inject-16"><rect x="376.65" y="382.06" width="69.56" height="78.01" rx="9.25" style="fill:#378CE7"></rect><circle cx="411.46" cy="377.57" r="17.39" style="fill:#263238;stroke:#263238;stroke-linecap:round;stroke-linejoin:round"></circle><polygon points="408.5 401.41 384.31 413.85 394.91 455.55 429.47 455.55 439.6 413.85 414.26 401.64 408.5 401.41" style="fill:gray;stroke:#263238;stroke-linecap:round;stroke-linejoin:round"></polygon><path d="M384.31,413.85l-9.23,38.84a5.64,5.64,0,0,0,2.3,6l12.23,8.4H397l-8.75-15.44,4.38-8.29Z" style="fill:gray;stroke:#263238;stroke-linecap:round;stroke-linejoin:round"></path><path d="M439.6,413.85l9.24,38.84a5.66,5.66,0,0,1-2.3,6l-12.23,8.4h-7.38l8.76-15.44-4.38-8.29Z" style="fill:gray;stroke:#263238;stroke-linecap:round;stroke-linejoin:round"></path><path d="M411.73,416.16h0a6.22,6.22,0,0,1-6.22-6.22V394.73H418v15.21A6.23,6.23,0,0,1,411.73,416.16Z" style="fill:#fff;stroke:#263238;stroke-linecap:round;stroke-linejoin:round"></path><path d="M405.51,404.45a9.47,9.47,0,0,0,4.76,2.61h0a15.85,15.85,0,0,0,1.87.1,19.19,19.19,0,0,0,2.05-.1V407a7.72,7.72,0,0,0,3.76-2.29v-10H405.51Z" style="fill:#263238;stroke:#263238;stroke-linecap:round;stroke-linejoin:round"></path><path d="M422.87,385.29l-1.05-9.91c-1.8,2.14-6.9,2.75-9.68,2.92-3.06-.17-8.65-.78-10.62-2.92l-1.16,9.91s-4.14-2.54-3.45,2.53,3.68,5.07,3.68,5.07a11.84,11.84,0,0,0,3,7.6c1.65,2,4.4,4.36,6.68,4.6h0a14.83,14.83,0,0,0,1.87.09,17.93,17.93,0,0,0,2.05-.09V405c2-.28,4.31-2.65,5.74-4.55a12.6,12.6,0,0,0,2.73-7.6s2.73,0,3.36-5.07S422.87,385.29,422.87,385.29Z" style="fill:#fff;stroke:#263238;stroke-linecap:round;stroke-linejoin:round"></path><rect x="383.62" y="473.75" width="56.67" height="1.84" style="fill:#378CE7;stroke:#263238;stroke-linecap:round;stroke-linejoin:round"></rect><polygon points="440.3 473.75 383.62 473.75 377.96 442.65 445.96 442.65 440.3 473.75" style="fill:#378CE7;stroke:#263238;stroke-linecap:round;stroke-linejoin:round"></polygon><polygon points="440.3 473.75 445.96 442.65 383.62 473.75 440.3 473.75" style="fill:#263238;stroke:#263238;stroke-linecap:round;stroke-linejoin:round"></polygon></g><g id="freepik--character-3--inject-16"><rect x="216.23" y="382.06" width="150.38" height="78.01" rx="9.25" style="fill:#378CE7"></rect><path d="M281.75,377s-.28,2.55-3.4,5.95-4.82,2.55-4.26,4.25,2.84,2.84,2.84,2.84-.85,10.21.85,12.19,8.5,1.13,8.5,1.13,1.14,4.82-.28,7.94-1.13,4.54-1.13,4.54,11.9-2.84,14.17-5.1-1.41-14.18,1.14-24.39S285.15,373.26,281.75,377Z" style="fill:#fff;stroke:#263238;stroke-linecap:round;stroke-linejoin:round"></path><path d="M329.09,450.09v-39.4l4.26-9.93s2.55-7.37,2.55-9.07-1.14-1.42-2.27.85-1.13,3.69-2.27,4.82a42.23,42.23,0,0,1-4,3.12s.29-4.82.29-5.67-1.42-1.14-2.27.57.57.85-1.42,4.53-.85,10.21-.85,10.21-5.95,24.95-7.37,29.2-.85,9.64,5.67,12.47S329.09,450.09,329.09,450.09Z" style="fill:#fff;stroke:#263238;stroke-linecap:round;stroke-linejoin:round"></path><path d="M320.31,420s8.78,26,8.78,30c0,7.37-4,9.64-7.37,7.94S314.07,447,314.07,447,318,421.74,320.31,420Z" style="fill:gray;stroke:#263238;stroke-linecap:round;stroke-linejoin:round"></path><path d="M247.73,441.87s2.27.85,6.52-.28S273,437.33,273,437.33s-1.42,5.39-.28,7.94,6.23,9.36,6.23,9.36l-3.58,21h42l-3.79-17.28s7.09-37.14,6.81-38.27-8.51-9.92-11.63-11.06-14.46-.56-14.46-.56l-23.81,7.65S250.56,427.41,246.88,430,241.77,439,247.73,441.87Z" style="fill:gray;stroke:#263238;stroke-linecap:round;stroke-linejoin:round"></path><line x1="272.96" y1="437.33" x2="280.33" y2="436.77" style="fill:none;stroke:#263238;stroke-linecap:round;stroke-linejoin:round"></line><path d="M277.78,415.79s8.79,1.13,9.64,13.89" style="fill:none;stroke:#263238;stroke-linecap:round;stroke-linejoin:round"></path><path d="M291.67,364.47s-6.24-6.8-11.34-3.12-2,13,.85,17.58,8.79,6.52,9.64,7.94-2,12.47-2,18.15,9.07,9.63,15,9.63,12.76-5.95,13.61-7.65a21.72,21.72,0,0,0,1.13-2.55s-5.67,1.42-6.23-4.25,4.82-9.36,4.82-19.28S305.28,357.1,291.67,364.47Z" style="fill:#263238;stroke:#263238;stroke-linecap:round;stroke-linejoin:round"></path><rect x="284.58" y="381.77" width="9.92" height="18.71" transform="translate(207.98 -88.63) rotate(26.86)" style="fill:#378CE7;stroke:#263238;stroke-linecap:round;stroke-linejoin:round"></rect><path d="M246.88,430c3.68-2.55,23.53-13.89,23.53-13.89l5.81-1.86c4.75-5,8.36-8.91,8.36-8.91s7.37-5.67,7.94-6.52a38.71,38.71,0,0,1,3.4-3.69c1.14-1.13,2-1.7-.56-1.42s-4,2-6,2-3.4-2.84-3.4-2.84-.57-6.8-1.42-7.08-2.55.56-2.55,1.7a7,7,0,0,1-.28,2,41,41,0,0,0-4.82,3.4c-1.14,1.14-.85,2.27-.85,3.69v6.8s-27.12,19.94-30,23c-6.51,6.72-3.73,10.29-1.81,12.23C242.84,435.46,244.3,431.75,246.88,430Z" style="fill:#fff;stroke:#263238;stroke-linecap:round;stroke-linejoin:round"></path></g><g id="freepik--characters-2--inject-16"><rect x="56.59" y="382.06" width="150.38" height="78.01" rx="9.25" style="fill:#378CE7"></rect><rect x="50.54" y="448.06" width="93.25" height="27.53" style="fill:#263238;stroke:#263238;stroke-linecap:round;stroke-linejoin:round"></rect><rect x="92.67" y="436.52" width="11.67" height="12.33" style="fill:#263238;stroke:#263238;stroke-linecap:round;stroke-linejoin:round"></rect><rect x="66" y="395.19" width="62" height="43" style="fill:#263238;stroke:#263238;stroke-linecap:round;stroke-linejoin:round"></rect><rect x="70.33" y="398.19" width="53.35" height="37" style="fill:#fff;stroke:#263238;stroke-linecap:round;stroke-linejoin:round"></rect><rect x="66.12" y="446" width="54.03" height="2.33" style="fill:#fff;stroke:#263238;stroke-linecap:round;stroke-linejoin:round"></rect><rect x="48.33" y="447.86" width="97.67" height="3.33" style="fill:#263238;stroke:#263238;stroke-linecap:round;stroke-linejoin:round"></rect><path d="M147.88,363.87s-6.66.35-7.72,4.91,3.51,6,3.51,6-.35,7.37,0,8.42a29.32,29.32,0,0,1,.7,3.5s-1.05,5.61-.7,6.67,3.51,1.05,3.51,1.05,3.5,8.41,6.66,8.77,6.31-1.76,6.31-1.76L161.9,407s17.54-5.61,16.49-5.26-2.81-8.06-2.81-8.06,5.61-17.18,2.81-25.25S160.85,353.35,147.88,363.87Z" style="fill:#fff;stroke:#263238;stroke-linecap:round;stroke-linejoin:round"></path><path d="M159.1,389.47a2.41,2.41,0,0,0-1.75,1.4s9.81,4.56,13.32,4.21a21.19,21.19,0,0,0,4.94-1.27l0-.13s5.61-17.18,2.81-25.25-17.54-15.08-30.51-4.56c0,0-6.66.35-7.72,4.91s3.51,6,3.51,6,2.45,1.4,3.51,1.05A13.21,13.21,0,0,0,150,374s-3.15,6-2.1,6.66,3.86,3.16,3.86,3.16,1.4,3.15,2.45,1.75.55-1.62,1.4-3.15a2.73,2.73,0,0,1,4.94,1C161.23,386.3,160.5,389.12,159.1,389.47Z" style="fill:#263238;stroke:#263238;stroke-linecap:round;stroke-linejoin:round"></path><path d="M172.67,400.33l-15,7-3,5,26.66-6.67,3.34,1S182.67,398,172.67,400.33Z" style="fill:gray;stroke:#263238;stroke-linecap:round;stroke-linejoin:round"></path><path d="M146,445l-1.27,30.6H196.5c1.1-7.07,7.09-47.36,2.83-55.26-.85-1.58-14.66-13.67-14.66-13.67s-4.67-2.67-9-1.33-17,5.33-17,5.33L139,422.33l-13.33,25L103,444l-3.33,5L129,464.66Z" style="fill:gray;stroke:#263238;stroke-linecap:round;stroke-linejoin:round"></path><path d="M99.67,443l-6.34-4.66s-10,1-11.33,2a4.68,4.68,0,0,0-1.67,2.33l4.67.67-4,1V446l8-.33,5,3,5.67.33,3.33-5Z" style="fill:#fff;stroke:#263238;stroke-linecap:round;stroke-linejoin:round"></path><path d="M202.54,475.59l5-25.65a4.71,4.71,0,0,0-4.62-5.61H167.78a4.69,4.69,0,0,0-4.59,3.69l-6.07,27.57Z" style="fill:#263238;stroke:#263238;stroke-linecap:round;stroke-linejoin:round"></path></g><g id="freepik--Shield--inject-16"><line x1="264.29" y1="19.84" x2="264.29" y2="64.49" style="fill:none;stroke:#263238;stroke-miterlimit:10;stroke-dasharray:3"></line><polygon points="264.5 67.03 273.23 51.9 255.76 51.9 264.5 67.03" style="fill:#263238"></polygon><circle cx="258.49" cy="187.32" r="120.79" style="fill:none;stroke:#263238;stroke-miterlimit:10;stroke-dasharray:3.011780023574829,3.011780023574829"></circle><line x1="264.29" y1="317.01" x2="264.29" y2="349.69" style="fill:none;stroke:#263238;stroke-miterlimit:10;stroke-dasharray:3"></line><polyline points="101.73 350.44 101.73 330.78 412.93 330.78 412.93 356.03" style="fill:none;stroke:#263238;stroke-miterlimit:10;stroke-dasharray:3"></polyline><polygon points="101.75 358.72 110.48 343.59 93.01 343.59 101.75 358.72" style="fill:#263238"></polygon><polygon points="264.5 358.72 273.23 343.59 255.76 343.59 264.5 358.72" style="fill:#263238"></polygon><polygon points="412.89 358.72 421.63 343.59 404.16 343.59 412.89 358.72" style="fill:#263238"></polygon><path d="M357.58,144S316.63,138.66,261,81.41v-.79l-.39.39-.38-.39v.79C204.64,138.66,163.68,144,163.68,144c-14.59,119.92,86.75,161,96.57,164.72V309l.38-.14.39.14v-.28C270.84,305,372.18,263.87,357.58,144Z" style="fill:#263238"></path><path d="M350,147.91S312.27,143,261,90.23V89.5l-.36.37-.35-.37v.73c-51.28,52.8-89,57.68-89,57.68-13.46,110.58,80,148.49,89,151.9v.26l.35-.13.36.13v-.26C270.05,296.4,363.49,258.49,350,147.91Z" style="fill:#378CE7"></path><path d="M331.54,157.61s-30-3.87-70.63-45.75v-.57c-.09.09-.18.19-.28.28l-.28-.28v.57c-40.67,41.88-70.62,45.75-70.62,45.75-10.68,87.7,63.44,117.77,70.62,120.47v.21l.28-.11.28.11v-.21C268.1,275.38,342.21,245.31,331.54,157.61Z" style="fill:#fff;opacity:0.5"></path><circle cx="188.83" cy="91.79" r="20.5" style="fill:#fff;stroke:#263238;stroke-miterlimit:10;stroke-width:2px"></circle><path d="M190.77,86.42h-5.16V80.74a2.59,2.59,0,0,1,2.58-2.58h0a2.58,2.58,0,0,1,2.58,2.58Z" style="fill:#263238"></path><path d="M187.42,82.28a.53.53,0,0,1-.24-.06l-4.38-2.33a.48.48,0,0,1-.27-.44V76.1a.5.5,0,0,1,.5-.5.5.5,0,0,1,.5.5v3.05l4.12,2.18a.5.5,0,0,1-.23,1Z" style="fill:#263238"></path><path d="M189,82.28a.5.5,0,0,1-.24-1l4.12-2.18V76.1a.5.5,0,0,1,.5-.5.5.5,0,0,1,.5.5v3.35a.49.49,0,0,1-.26.44l-4.39,2.33A.46.46,0,0,1,189,82.28Z" style="fill:#263238"></path><circle cx="188.45" cy="93.64" r="10.84" style="fill:#378CE7;stroke:#263238;stroke-miterlimit:10"></circle><path d="M169.62,91.05a.51.51,0,0,1-.36-.15.51.51,0,0,1,0-.71l3.87-3.87a.51.51,0,0,1,.5-.12l5.28,1.55a.5.5,0,0,1-.28,1l-5-1.47L170,90.9A.5.5,0,0,1,169.62,91.05Z" style="fill:#263238"></path><path d="M170.39,97.5a.5.5,0,0,1-.38-.82l2.84-3.36a.49.49,0,0,1,.38-.18h4.38a.5.5,0,0,1,.5.5.5.5,0,0,1-.5.5h-4.15l-2.69,3.18A.49.49,0,0,1,170.39,97.5Z" style="fill:#263238"></path><path d="M173.49,104.72h-.07a.51.51,0,0,1-.43-.56l.52-4.13a.51.51,0,0,1,.2-.35l4.06-2.85a.51.51,0,0,1,.7.12.5.5,0,0,1-.12.7l-3.88,2.73-.49,3.9A.5.5,0,0,1,173.49,104.72Z" style="fill:#263238"></path><path d="M207.29,91.05a.51.51,0,0,1-.36-.15l-3.66-3.66-5,1.52a.5.5,0,1,1-.29-1l5.3-1.6a.49.49,0,0,1,.5.12l3.87,3.87a.51.51,0,0,1,0,.71A.5.5,0,0,1,207.29,91.05Z" style="fill:#263238"></path><path d="M206.51,97.5a.49.49,0,0,1-.38-.18l-2.69-3.18h-4.15a.5.5,0,0,1-.5-.5.5.5,0,0,1,.5-.5h4.38a.53.53,0,0,1,.39.18l2.83,3.36a.49.49,0,0,1-.06.7A.47.47,0,0,1,206.51,97.5Z" style="fill:#263238"></path><path d="M203.41,104.72a.5.5,0,0,1-.49-.44l-.49-3.91-3.85-2.77a.5.5,0,1,1,.58-.81l4,2.9a.51.51,0,0,1,.21.34l.51,4.13a.5.5,0,0,1-.43.56Z" style="fill:#263238"></path><polygon points="188.95 104.48 187.95 104.48 187.95 89.68 191.25 87.3 191.84 88.11 188.95 90.2 188.95 104.48" style="fill:#263238"></polygon><polygon points="188.93 97.7 188.49 96.81 193.88 94.11 193.88 89.26 194.88 89.26 194.88 94.73 188.93 97.7" style="fill:#263238"></polygon><polygon points="188.19 94.07 183.82 91.34 183.82 86.94 184.82 86.94 184.82 90.79 188.72 93.22 188.19 94.07" style="fill:#263238"></polygon><polygon points="188.18 101.55 182.27 97.79 182.27 93.9 183.27 93.9 183.27 97.24 188.72 100.7 188.18 101.55" style="fill:#263238"></polygon><circle cx="184.25" cy="86.98" r="1.02" style="fill:#263238"></circle><circle cx="191.74" cy="87.64" r="1.02" style="fill:#263238"></circle><path d="M195.31,89.16a1,1,0,1,1-1-1A1,1,0,0,1,195.31,89.16Z" style="fill:#263238"></path><path d="M183.8,93.76a1,1,0,1,1-1-1A1,1,0,0,1,183.8,93.76Z" style="fill:#263238"></path><circle cx="205" cy="76.62" r="7.67" transform="translate(59.46 240.06) rotate(-68.81)" style="fill:#fff;stroke:#263238;stroke-miterlimit:10;stroke-width:2px"></circle><line x1="199.33" y1="81.29" x2="210.67" y2="71.95" style="fill:none;stroke:#263238;stroke-miterlimit:10;stroke-width:2px"></line><circle cx="332.02" cy="91.79" r="20.5" style="fill:#378CE7"></circle><path d="M343.44,108.86l-.15.09" style="fill:none;stroke:#fff;stroke-miterlimit:10"></path><path d="M320.92,109a20.42,20.42,0,0,0,11.19,3.34" style="fill:none;stroke:#fff;stroke-miterlimit:10"></path><path d="M350.58,83a20.61,20.61,0,0,0-4.9-6.5" style="fill:none;stroke:#fff;stroke-miterlimit:10"></path><path d="M343.29,109a20.39,20.39,0,0,1-11.18,3.34" style="fill:none;stroke:#fff;stroke-miterlimit:10"></path><path d="M343.44,108.86a20.57,20.57,0,0,0,6.15-6.41" style="fill:none;stroke:#fff;stroke-miterlimit:10"></path><path d="M349.59,102.45a20.17,20.17,0,0,0,2.59-6.5" style="fill:none;stroke:#fff;stroke-miterlimit:10"></path><path d="M320.92,109a20.58,20.58,0,0,1-6.3-6.5" style="fill:none;stroke:#fff;stroke-miterlimit:10"></path><path d="M318.53,76.45a20.42,20.42,0,0,1,13.58-5.16" style="fill:none;stroke:#fff;stroke-miterlimit:10"></path><path d="M345.68,76.45a20.42,20.42,0,0,0-13.57-5.16" style="fill:none;stroke:#fff;stroke-miterlimit:10"></path><path d="M352.18,96a20.38,20.38,0,0,0,.43-4.16,20.14,20.14,0,0,0-.15-2.34" style="fill:none;stroke:#fff;stroke-miterlimit:10"></path><path d="M350.58,83a20.15,20.15,0,0,1,1.88,6.5" style="fill:none;stroke:#fff;stroke-miterlimit:10"></path><path d="M312,96a20.38,20.38,0,0,1-.42-4.16,20.14,20.14,0,0,1,.14-2.34" style="fill:none;stroke:#fff;stroke-miterlimit:10"></path><path d="M318.53,76.45a20.61,20.61,0,0,0-4.9,6.5" style="fill:none;stroke:#fff;stroke-miterlimit:10"></path><path d="M313.63,83a20.41,20.41,0,0,0-1.88,6.5" style="fill:none;stroke:#fff;stroke-miterlimit:10"></path><path d="M312,96a20.4,20.4,0,0,0,2.59,6.5" style="fill:none;stroke:#fff;stroke-miterlimit:10"></path><line x1="332.11" y1="76.45" x2="345.68" y2="76.45" style="fill:none;stroke:#fff;stroke-miterlimit:10"></line><line x1="318.53" y1="76.45" x2="332.11" y2="76.45" style="fill:none;stroke:#fff;stroke-miterlimit:10"></line><line x1="350.58" y1="82.95" x2="313.63" y2="82.95" style="fill:none;stroke:#fff;stroke-miterlimit:10"></line><line x1="352.46" y1="89.45" x2="311.75" y2="89.45" style="fill:none;stroke:#fff;stroke-miterlimit:10"></line><line x1="343.44" y1="95.95" x2="352.18" y2="95.95" style="fill:none;stroke:#fff;stroke-miterlimit:10"></line><line x1="321.19" y1="95.95" x2="312.03" y2="95.95" style="fill:none;stroke:#fff;stroke-miterlimit:10"></line><line x1="343.44" y1="95.95" x2="321.19" y2="95.95" style="fill:none;stroke:#fff;stroke-miterlimit:10"></line><line x1="349.59" y1="102.45" x2="314.62" y2="102.45" style="fill:none;stroke:#fff;stroke-miterlimit:10"></line><line x1="343.29" y1="108.95" x2="343.44" y2="108.95" style="fill:none;stroke:#fff;stroke-miterlimit:10"></line><line x1="332.11" y1="108.95" x2="343.29" y2="108.95" style="fill:none;stroke:#fff;stroke-miterlimit:10"></line><line x1="321.19" y1="108.95" x2="320.92" y2="108.95" style="fill:none;stroke:#fff;stroke-miterlimit:10"></line><line x1="332.11" y1="108.95" x2="321.19" y2="108.95" style="fill:none;stroke:#fff;stroke-miterlimit:10"></line><line x1="332.11" y1="76.45" x2="332.11" y2="71.29" style="fill:none;stroke:#fff;stroke-miterlimit:10"></line><line x1="343.44" y1="76.95" x2="343.44" y2="82.95" style="fill:none;stroke:#fff;stroke-miterlimit:10"></line><line x1="321.19" y1="76.95" x2="321.19" y2="82.95" style="fill:none;stroke:#fff;stroke-miterlimit:10"></line><line x1="332.11" y1="83.2" x2="332.11" y2="89.38" style="fill:none;stroke:#fff;stroke-miterlimit:10"></line><line x1="343.44" y1="95.95" x2="343.44" y2="89.98" style="fill:none;stroke:#fff;stroke-miterlimit:10"></line><line x1="321.19" y1="89.98" x2="321.19" y2="95.95" style="fill:none;stroke:#fff;stroke-miterlimit:10"></line><line x1="332.11" y1="96.2" x2="332.11" y2="102.38" style="fill:none;stroke:#fff;stroke-miterlimit:10"></line><line x1="332.11" y1="108.95" x2="332.11" y2="112.29" style="fill:none;stroke:#fff;stroke-miterlimit:10"></line><line x1="343.44" y1="108.86" x2="343.44" y2="102.98" style="fill:none;stroke:#fff;stroke-miterlimit:10"></line><line x1="343.44" y1="108.86" x2="343.44" y2="108.95" style="fill:none;stroke:#fff;stroke-miterlimit:10"></line><line x1="321.19" y1="102.98" x2="321.19" y2="108.95" style="fill:none;stroke:#fff;stroke-miterlimit:10"></line><circle cx="332.02" cy="91.79" r="20.5" style="fill:none;stroke:#263238;stroke-miterlimit:10;stroke-width:2px"></circle><path d="M360.16,90c-3.23,3.16-8.81,4.51-13.16,2.38-3.43-1.68-6.19-4.51-5.59-8.67s4.32-6.47,5.88-10.23c1.67-4,1.78-10.28,1.78-10.28s2.89,3.28,3.22,5.28a24.45,24.45,0,0,1,.34,3.67l2.17-5.79c.48,2,.86,4.1,1.48,6.07,1.1,3.45,4.21,5.19,5.77,8.21S362.56,87.6,360.16,90Z" style="fill:#263238"></path><path d="M352,91.94s-3.27-2.42-2.64-5.79,2.74-4,2.74-4a6.39,6.39,0,0,1,2.11,5.06A6.84,6.84,0,0,1,352,91.94Z" style="fill:#378CE7;stroke:#263238;stroke-linecap:round;stroke-linejoin:round"></path><circle cx="140.83" cy="205.29" r="20.5" style="fill:#378CE7"></circle><ellipse cx="140.83" cy="205.29" rx="15.83" ry="20.5" style="fill:none;stroke:#fff;stroke-miterlimit:10"></ellipse><ellipse cx="140.83" cy="205.29" rx="7.5" ry="20.5" style="fill:none;stroke:#fff;stroke-miterlimit:10"></ellipse><line x1="130.15" y1="187.79" x2="151.18" y2="187.79" style="fill:none;stroke:#fff;stroke-miterlimit:10"></line><line x1="121.39" y1="198.23" x2="159.95" y2="198.23" style="fill:none;stroke:#fff;stroke-miterlimit:10"></line><line x1="120.33" y1="208.67" x2="161" y2="208.67" style="fill:none;stroke:#fff;stroke-miterlimit:10"></line><line x1="124.54" y1="219.12" x2="156.79" y2="219.12" style="fill:none;stroke:#fff;stroke-miterlimit:10"></line><circle cx="140.83" cy="205.29" r="20.5" style="fill:none;stroke:#263238;stroke-miterlimit:10;stroke-width:2px"></circle><path d="M154.63,202.2a7.26,7.26,0,0,0-7.25,7.25V226h14.5v-16.5A7.26,7.26,0,0,0,154.63,202.2Zm-5.25,9.25v-2a5.25,5.25,0,0,1,10.5,0v2Z" style="fill:#263238"></path><path d="M156.58,217a2,2,0,1,0-2.83,1.84l-.53,4.39h2.69l-.53-4.39A2,2,0,0,0,156.58,217Z" style="fill:#fff"></path><circle cx="380.34" cy="205.29" r="20.5" style="fill:#fff;stroke:#263238;stroke-miterlimit:10;stroke-width:2px"></circle><polygon points="389.17 200.46 364.72 200.46 364.72 190.57 385.88 190.57 389.17 200.46" style="fill:#378CE7;stroke:#263238;stroke-miterlimit:10"></polygon><rect x="364.72" y="196.34" width="31.32" height="21.43" style="fill:#378CE7;stroke:#263238;stroke-miterlimit:10"></rect><path d="M392.56,202.7a7.26,7.26,0,0,0-7.25,7.25v16.5h14.5V210A7.26,7.26,0,0,0,392.56,202.7ZM387.31,212v-2a5.25,5.25,0,0,1,10.5,0v2Z" style="fill:#263238"></path><path d="M394.51,217.47a2,2,0,1,0-2.82,1.84l-.53,4.39h2.68l-.53-4.39A2,2,0,0,0,394.51,217.47Z" style="fill:#fff"></path><line x1="30.05" y1="475.59" x2="473.96" y2="475.59" style="fill:none;stroke:#263238;stroke-linecap:round;stroke-linejoin:round"></line></g><g id="freepik--Device--inject-16"><polygon points="242.86 310.29 165.53 310.29 155.81 256.62 233.14 256.62 242.86 310.29" style="fill:#263238;stroke:#263238;stroke-linecap:round;stroke-linejoin:round"></polygon><polygon points="239.86 310.29 162.53 310.29 152.81 256.62 230.14 256.62 239.86 310.29" style="fill:#378CE7;stroke:#263238;stroke-linecap:round;stroke-linejoin:round"></polygon><polygon points="165.53 310.29 239.86 310.29 232.7 270.76 165.53 310.29" style="fill:#263238;stroke:#263238;stroke-linecap:round;stroke-linejoin:round"></polygon><rect x="162.53" y="310.29" width="121.58" height="3.25" style="fill:#378CE7;stroke:#263238;stroke-linecap:round;stroke-linejoin:round"></rect><rect x="240.9" y="310.29" width="43.21" height="3.25" style="fill:#263238;stroke:#263238;stroke-linecap:round;stroke-linejoin:round"></rect></g></svg>